# xmcd CD database file
#
# Track frame offsets:
#	150
#	23842
#	41930
#	56947
#	71632
#	98997
#	116487
#	131605
#	159377
#	178402
#	196990
#
# Disc length: 3084 seconds
#
# Revision: 0
# Processed by: cddbd v1.5.1PL0 Copyright (c) Steve Scherf et al.
# Submitted via: CDex 1.51
#
DISCID=a30c0a0b
DTITLE=Dejan's Olympia Brass Band - The Best of New Orleans Jazz - Volume 2
DYEAR=1900
DGENRE=Jazz
TTITLE0=Marie Laveau
TTITLE1=Lilly Mae
TTITLE2=Down By The Riverside
TTITLE3=Havin' Fun
TTITLE4=New Second Line '89
TTITLE5=What A Wonderful World
TTITLE6=Muskrat Bramble
TTITLE7=Should I?
TTITLE8=Blueberry Hill
TTITLE9=Little Liza Jane
TTITLE10=Cherry
EXTD=
EXTT0=
EXTT1=
EXTT2=
EXTT3=
EXTT4=
EXTT5=
EXTT6=
EXTT7=
EXTT8=
EXTT9=
EXTT10=
PLAYORDER=
